<svg xmlns="http://www.w3.org/2000/svg" version="1.1" style="display: none;">
    <defs>
        <symbol id="linkedin" viewBox="0 0 24 24">
            <path d="M21 21h-4v-6.75c0-1.06-1.19-1.94-2.25-1.94S13 13.19 13 14.25V21H9V9h4v2c.66-1.07 2.36-1.76 3.5-1.76 2.5 0 4.5 2.04 4.5 4.51V21M7 21H3V9h4v12M5 3a2 2 0 0 1 2 2 2 2 0 0 1-2 2 2 2 0 0 1-2-2 2 2 0 0 1 2-2z"/>
        </symbol>
        <symbol id="stackoverflow" viewBox="0 0 24 24">
            <path d="M17.36 20.2v-5.38h1.79V22H3v-7.18h1.8v5.38h12.56M6.77 14.32l.37-1.76 8.79 1.85-.37 1.76-8.79-1.85m1.16-4.21l.76-1.61 8.14 3.78-.76 1.62-8.14-3.79m2.26-3.99l1.15-1.38 6.9 5.76-1.15 1.37-6.9-5.75m4.45-4.25L20 9.08l-1.44 1.07-5.36-7.21 1.44-1.07M6.59 18.41v-1.8h8.98v1.8H6.59z"/>
        </symbol>
        <symbol id="github" viewBox="0 0 24 24">
            <path d="M12 2A10 10 0 0 0 2 12c0 4.42 2.87 8.17 6.84 9.5.5.08.66-.23.66-.5v-1.69c-2.77.6-3.36-1.34-3.36-1.34-.46-1.16-1.11-1.47-1.11-1.47-.91-.62.07-.6.07-.6 1 .07 1.53 1.03 1.53 1.03.87 1.52 2.34 1.07 2.91.83.09-.65.35-1.09.63-1.34-2.22-.25-4.55-1.11-4.55-4.92 0-1.11.38-2 1.03-2.71-.1-.25-.45-1.29.1-2.64 0 0 .84-.27 2.75 1.02.79-.22 1.65-.33 2.5-.33.85 0 1.71.11 2.5.33 1.91-1.29 2.75-1.02 2.75-1.02.55 1.35.2 2.39.1 2.64.65.71 1.03 1.6 1.03 2.71 0 3.82-2.34 4.66-4.57 4.91.36.31.69.92.69 1.85V21c0 .27.16.59.67.5C19.14 20.16 22 16.42 22 12A10 10 0 0 0 12 2z"/>
        </symbol>
    </defs>
</svg>